<?xml version="1.0" standalone="no"?>
<!DOCTYPE svg PUBLIC "-//W3C//DTD SVG 20010904//EN"
 "http://www.w3.org/TR/2001/REC-SVG-20010904/DTD/svg10.dtd">
<svg version="1.0" xmlns="http://www.w3.org/2000/svg"
 width="1920.000000pt" height="1152.000000pt" viewBox="0 0 1920.000000 1152.000000"
 preserveAspectRatio="xMidYMid meet">

<g transform="translate(0.000000,1152.000000) scale(0.100000,-0.100000)"
fill="#000000" stroke="none">
<path d="M0 8480 l0 -3040 208 0 207 0 248 -248 247 -247 0 -100 c0 -68 3 -95
10 -85 9 13 10 13 10 0 0 -13 1 -13 10 0 7 11 35 17 102 20 96 6 210 -10 310
-45 38 -12 53 -13 69 -4 19 10 93 9 175 -3 15 -2 129 104 459 430 l439 432
895 0 896 0 365 -365 365 -365 675 0 675 0 665 664 665 664 550 6 c303 3 656
6 785 6 l235 0 300 -300 300 -300 1036 0 c919 0 1654 -8 1593 -18 -15 -2 -20
-9 -17 -21 4 -16 -8 -18 -148 -24 -84 -4 -679 -7 -1323 -7 l-1172 0 -299 300
-299 300 -757 0 -758 0 -667 -670 -668 -670 -696 0 -695 0 -368 368 -367 367
-868 -3 -867 -4 -347 -346 c-191 -190 -346 -347 -345 -348 3 -2 145 -13 180
-14 l27 0 0 -110 0 -110 -95 -1 c-52 -1 -103 -2 -112 -3 -16 -1 -19 12 -23
107 l-5 109 -66 -69 -66 -69 22 -34 c27 -45 47 -113 39 -136 -5 -16 -4 -16 5
-4 7 10 11 11 11 3 0 -7 10 -13 23 -14 l22 0 -23 -10 c-13 -5 -28 -7 -32 -4
-5 3 -20 -17 -33 -44 l-23 -49 33 3 c29 2 31 0 22 -17 -15 -27 -36 -33 -54
-14 -9 9 -19 16 -23 16 -4 0 6 -12 21 -25 16 -14 22 -25 15 -25 -8 0 -20 6
-28 13 -12 10 -12 9 -1 -5 7 -10 10 -25 7 -35 -9 -22 -25 -5 -28 29 -2 22 -5
25 -20 17 -10 -5 -18 -15 -18 -21 0 -6 -3 -8 -6 -5 -4 3 -15 2 -26 -4 -11 -6
-32 -11 -48 -11 -27 -1 -28 -2 -12 -15 9 -8 13 -12 7 -10 -16 7 -50 -9 -50
-24 0 -8 -11 -15 -25 -17 -14 -2 -35 -13 -47 -25 -40 -39 -53 -48 -63 -42 -6
4 -20 3 -31 0 -21 -7 -20 -7 3 -23 12 -9 27 -16 31 -14 5 1 5 -2 2 -8 -4 -6
11 -29 33 -51 38 -37 44 -39 101 -39 l61 0 0 30 c0 20 5 30 15 30 10 0 15 -10
15 -30 0 -27 3 -30 30 -30 27 0 30 3 30 30 0 20 5 30 15 30 10 0 15 -10 15
-30 0 -27 3 -30 30 -30 27 0 30 3 30 31 0 20 4 29 13 26 6 -2 11 -16 9 -31 -3
-24 0 -26 33 -26 32 0 35 2 35 30 0 17 5 30 10 30 6 0 10 -13 10 -30 0 -38 19
-39 50 0 27 32 40 37 40 16 0 -8 7 -16 15 -20 20 -7 20 -60 0 -76 -8 -7 -15
-25 -15 -41 0 -26 3 -29 35 -29 l35 0 0 90 c0 59 4 90 11 90 7 0 10 -28 8 -88
-4 -83 -3 -87 18 -90 35 -5 53 33 53 112 0 38 3 67 6 64 3 -3 6 -34 6 -67 l1
-62 39 38 c23 23 38 47 39 63 0 20 2 21 7 7 6 -14 40 16 180 156 94 95 172
179 172 185 0 7 6 12 13 12 7 0 26 13 42 30 l29 30 322 0 322 0 16 25 c29 45
96 24 96 -30 0 -55 -64 -73 -99 -29 l-20 26 -310 -4 c-287 -3 -310 -4 -330
-22 -24 -21 -24 -25 -12 -45 6 -9 24 -14 50 -13 l41 2 0 -69 0 -69 -62 -4
c-35 -2 -66 1 -69 6 -14 18 -20 89 -9 96 8 5 6 9 -5 13 -9 4 -13 3 -10 -3 3
-6 0 -10 -7 -10 -7 0 -70 -57 -139 -126 -114 -114 -127 -130 -124 -158 1 -17
0 -21 -2 -8 -2 12 -7 22 -11 22 -4 0 -49 -43 -101 -95 -98 -99 -100 -100 -188
-95 -38 2 -43 -1 -43 -19 0 -12 -4 -21 -10 -21 -5 0 -10 9 -10 20 0 16 -7 20
-34 20 -28 0 -35 -4 -39 -22 l-4 -23 -8 23 c-10 31 -75 33 -75 2 0 -11 -4 -20
-10 -20 -5 0 -10 9 -10 20 0 29 -60 29 -67 0 -7 -26 -23 -26 -23 0 0 30 -56
28 -63 -2 -6 -22 -22 -18 -22 5 0 9 -40 13 -135 15 l-134 3 -132 129 c-93 92
-137 128 -148 124 -9 -3 -16 -8 -16 -11 0 -3 8 -2 18 2 13 5 14 4 5 -6 -10
-10 -16 -9 -31 4 -10 9 -35 17 -55 17 -20 0 -39 5 -42 10 -3 6 -14 10 -23 10
-22 0 -132 51 -132 62 0 4 -7 8 -15 8 -9 0 -18 7 -21 15 -3 8 -14 17 -25 20
-10 4 -19 12 -19 20 0 7 -6 20 -14 27 -25 26 -50 83 -55 128 l-6 45 -225 3
-225 2 -57 57 -58 57 0 -2302 0 -2302 9600 0 9600 0 0 5760 0 5760 -9600 0
-9600 0 0 -3040z m8873 -1675 c-3 -9 -8 -14 -10 -11 -3 3 -2 9 2 15 9 16 15
13 8 -4z m42 -5 c-3 -5 -14 -10 -23 -10 -15 0 -15 2 -2 10 20 13 33 13 25 0z
m-6690 -352 c292 -1 545 -2 562 -1 18 0 30 -4 27 -8 -3 -5 -258 -9 -567 -9
l-562 0 -56 58 c-80 82 -81 105 -1 27 l67 -65 530 -2z m651 27 c0 -14 -4 -25
-8 -25 -4 0 -8 -4 -8 -9 0 -5 41 -12 90 -15 50 -4 90 -11 90 -15 0 -21 -44
-61 -74 -67 -55 -10 -120 35 -95 65 5 6 6 9 3 6 -4 -2 -13 3 -22 11 -12 12
-12 18 -3 23 7 5 14 17 16 27 4 24 4 24 8 24 2 0 3 -11 3 -25z m6639 -89 c10
-15 14 -33 10 -49 -6 -22 21 -53 257 -287 l263 -261 485 3 c658 4 2002 -5
1740 -12 -113 -3 -665 -6 -1226 -8 l-1022 -3 -258 265 c-247 254 -259 264
-290 259 -35 -6 -74 23 -74 55 0 59 84 86 115 38z m-924 -6 c23 -13 25 -55 3
-64 -40 -15 -73 19 -54 55 12 22 23 23 51 9z m-4677 -166 c19 -19 20 -26 4
-42 -17 -17 -55 -15 -62 4 -8 20 10 54 29 54 7 0 21 -7 29 -16z m-1330 -23
c-51 -4 -79 -12 -95 -26 -24 -20 -24 -20 0 8 23 25 30 27 95 25 l71 -1 -71 -6z
m229 2 c-7 -2 -21 -2 -30 0 -10 3 -4 5 12 5 17 0 24 -2 18 -5z m110 0 c-7 -2
-21 -2 -30 0 -10 3 -4 5 12 5 17 0 24 -2 18 -5z m164 1 c-3 -3 -12 -4 -19 -1
-8 3 -5 6 6 6 11 1 17 -2 13 -5z m270 0 c-3 -3 -12 -4 -19 -1 -8 3 -5 6 6 6
11 1 17 -2 13 -5z m116 -1 c-7 -2 -19 -2 -25 0 -7 3 -2 5 12 5 14 0 19 -2 13
-5z m164 1 c-3 -3 -12 -4 -19 -1 -8 3 -5 6 6 6 11 1 17 -2 13 -5z m110 0 c-3
-3 -12 -4 -19 -1 -8 3 -5 6 6 6 11 1 17 -2 13 -5z m-1668 -441 c-211 -214
-387 -389 -391 -391 -5 -2 -8 -19 -8 -37 0 -54 -55 -71 -80 -25 -17 33 18 77
52 65 7 -2 180 160 408 385 217 214 397 389 399 390 3 0 -168 -174 -380 -387z
m-1017 114 c-210 -210 -242 -246 -242 -273 0 -35 -16 -54 -45 -54 -27 0 -45
18 -45 45 0 29 19 45 55 45 26 0 61 31 270 240 132 132 242 240 245 240 3 0
-104 -109 -238 -243z m9168 143 c20 -20 36 -20 887 -23 l868 -2 -870 -3 c-858
-2 -870 -2 -883 -22 -23 -37 -72 -19 -72 27 0 20 22 42 43 43 4 0 16 -9 27
-20z m1853 -27 c-7 -2 -21 -2 -30 0 -10 3 -4 5 12 5 17 0 24 -2 18 -5z m390 0
c-7 -2 -19 -2 -25 0 -7 3 -2 5 12 5 14 0 19 -2 13 -5z m-5473 -27 c0 -2 -8
-10 -17 -17 -16 -13 -17 -12 -4 4 13 16 21 21 21 13z m1991 -16 c12 -7 19 -21
19 -38 0 -22 60 -87 343 -369 l342 -343 695 -3 695 -2 -700 -3 -700 -2 -344
344 c-261 262 -348 342 -362 339 -42 -11 -69 55 -31 76 21 13 20 13 43 1z
m-5751 -110 c19 -19 36 -20 482 -23 l463 -2 -465 -3 c-452 -2 -466 -3 -483
-22 -26 -31 -58 -24 -71 16 -4 14 -1 28 9 38 22 21 41 20 65 -4z m6005 -370
l380 -380 470 -3 470 -2 -471 -3 -471 -2 -384 380 -384 380 -510 0 -510 0
-255 -252 -255 -253 255 258 255 257 515 0 515 0 380 -380z m3660 350 c-10
-11 -23 -20 -28 -20 -6 0 -2 9 8 20 10 11 23 20 28 20 6 0 2 -9 -8 -20z
m-8131 4 c26 -10 21 -60 -6 -68 -31 -8 -62 28 -48 55 11 20 27 23 54 13z
m-431 -11 c-23 -2 -64 -2 -90 0 -26 2 -7 3 42 3 50 0 71 -1 48 -3z m469 -380
l341 -343 351 -3 351 -2 -350 -3 -350 -2 -360 362 c-198 199 -352 355 -342
348 10 -8 172 -168 359 -357z m3969 196 c15 -15 19 -28 14 -47 -6 -23 22 -54
307 -341 l313 -316 -280 275 c-154 151 -296 292 -315 313 -30 32 -40 37 -62
32 -19 -5 -32 -1 -47 14 -27 27 -27 56 1 75 30 21 44 20 69 -5z m-2111 8 c0
-1 -46 -47 -102 -102 l-103 -100 100 103 c93 95 105 107 105 99z m100 -121 c0
-2 -8 -10 -17 -17 -16 -13 -17 -12 -4 4 13 16 21 21 21 13z m-40 -40 c0 -2 -8
-10 -17 -17 -16 -13 -17 -12 -4 4 13 16 21 21 21 13z m-1550 -101 c52 -52 92
-95 90 -95 -3 0 -48 43 -100 95 -52 52 -92 95 -90 95 3 0 48 -43 100 -95z
m4686 30 c5 -13 89 -15 658 -17 l651 -3 -648 -2 c-623 -3 -648 -4 -666 -22
-35 -35 -92 7 -61 44 16 19 59 19 66 0z m-8041 -80 c-29 -30 -57 -55 -61 -55
-5 0 16 25 46 55 30 30 58 55 62 55 3 0 -17 -25 -47 -55z m715 -22 c-1 -11
-40 37 -40 49 0 6 9 -1 20 -15 11 -14 20 -29 20 -34z m3850 54 c0 -2 -10 -12
-22 -23 l-23 -19 19 23 c18 21 26 27 26 19z m928 -64 c3 -31 -18 -63 -41 -63
-19 0 -57 29 -57 43 0 30 31 57 64 54 28 -2 32 -6 34 -34z m-5656 -135 c-68
-69 -92 -100 -92 -118 0 -52 -61 -71 -82 -25 -9 21 -8 28 7 46 12 13 27 18 40
15 16 -4 41 14 110 84 49 50 94 90 99 90 5 0 -32 -42 -82 -92z m9506 70 c7 -7
12 -22 12 -35 0 -32 -45 -43 -71 -16 -19 19 -19 19 1 41 23 25 40 28 58 10z
m-4758 -73 l-74 -75 -56 2 -55 2 56 3 c54 4 57 6 124 73 38 39 72 70 74 70 3
0 -28 -34 -69 -75z m-2996 49 c9 -8 13 -20 10 -26 -4 -5 102 -119 235 -252
l241 -242 0 -239 0 -240 -412 -412 -413 -413 -683 0 -683 0 -281 -280 c-154
-154 -283 -280 -287 -280 -3 0 122 128 279 285 l285 285 685 0 685 0 408 408
407 408 0 234 0 235 -237 237 c-162 161 -246 238 -263 240 -28 3 -38 31 -20
53 16 19 25 19 44 -1z m7336 -88 c18 -23 8 -59 -23 -76 -27 -14 -29 -14 -53
13 -23 26 -23 29 -8 52 19 28 64 34 84 11z m-4707 -33 c-35 -2 -91 -2 -125 0
-35 2 -7 3 62 3 69 0 97 -1 63 -3z m4189 -160 c23 -21 23 -45 -2 -68 -45 -40
-105 20 -65 65 22 24 43 25 67 3z m-134 -40 c-27 -2 -69 -2 -95 0 -27 2 -5 3
47 3 52 0 74 -1 48 -3z m-5243 -163 c54 -54 97 -102 94 -104 -3 -3 -52 42
-109 99 -58 58 -100 105 -95 105 6 0 55 -45 110 -100z m-3098 -173 c1 -29 1
-30 -8 -9 -5 13 -7 28 -3 33 8 14 9 12 11 -24z m5104 -386 c43 -43 41 -101 -5
-147 -23 -23 -43 -34 -62 -34 -38 0 -91 33 -106 65 l-11 25 -1256 0 -1256 0
-475 -475 -475 -475 -748 0 -749 0 -408 -401 c-224 -221 -412 -401 -416 -401
-5 0 -16 -5 -24 -11 -13 -9 -13 -9 -2 3 7 8 18 15 25 15 7 1 11 7 9 14 -4 19
28 54 431 459 l369 372 752 0 751 0 470 470 470 470 1267 0 c739 0 1268 4
1268 9 0 5 13 23 29 40 24 26 36 31 76 31 38 0 52 -5 76 -29z m-6151 -8 c30
-25 32 -30 27 -77 l-5 -51 192 -192 191 -192 603 -3 604 -2 174 177 c159 160
174 178 164 197 -6 12 -8 34 -5 51 17 77 140 80 159 3 16 -62 -37 -111 -105
-100 -33 6 -40 1 -209 -169 l-175 -175 -610 0 -610 0 -199 193 -199 192 -46
-3 c-48 -2 -70 8 -89 45 -20 37 -14 73 17 104 38 37 79 38 121 2z m634 -2 c4
-5 -3 -7 -14 -4 -23 6 -26 13 -6 13 8 0 17 -4 20 -9z m3656 -228 l-765 -3
-367 -367 c-298 -298 -366 -371 -362 -388 6 -26 -26 -58 -50 -49 -46 18 -29
92 18 80 18 -4 84 56 391 364 l370 370 765 -2 765 -3 -765 -2z m130 -87 c6 -8
10 -24 8 -35 -2 -15 26 -50 102 -126 l105 -105 130 -2 130 -2 -130 -3 -129 -4
-106 105 c-88 88 -111 105 -140 108 -28 2 -36 8 -38 26 -2 13 -1 30 2 38 7 18
50 18 66 0z m-70 -272 l195 -196 297 5 297 5 23 27 c30 35 84 38 110 5 31 -38
20 -83 -29 -108 -27 -15 -65 -2 -86 28 -15 21 -22 22 -319 27 l-303 5 -191
189 -190 189 -284 0 -285 0 -410 -410 -411 -410 -74 0 c-41 0 -200 0 -353 0
l-277 1 -11 -25 c-17 -37 -60 -51 -97 -32 -47 24 -57 76 -22 114 30 32 76 29
110 -8 l27 -29 342 -2 342 -2 412 411 412 412 290 0 290 0 195 -196z m1960
125 c0 -6 -6 -9 -14 -6 -11 4 -13 -2 -11 -26 4 -30 3 -31 -10 -13 -10 13 -11
24 -4 37 11 21 39 26 39 8z m30 -24 c0 -8 -5 -17 -12 -21 -7 -5 -9 -2 -5 9 4
12 2 14 -11 10 -14 -6 -15 -5 -2 9 17 18 30 14 30 -7z m-2366 -71 c19 -18 19
-20 6 -45 -6 -11 -21 -19 -35 -19 -20 0 -45 24 -45 44 0 10 32 36 45 36 7 0
21 -7 29 -16z m1416 -9 c13 -16 5 -54 -13 -56 -24 -3 -41 3 -52 17 -7 9 -38
14 -95 17 l-85 3 86 2 c63 1 90 6 99 17 16 19 44 19 60 0z m-1680 -22 l-65 -4
-275 -272 c-151 -150 -239 -234 -195 -189 44 46 167 171 273 278 l194 194 66
-2 67 -2 -65 -3z m1313 0 c-7 -2 -21 -2 -30 0 -10 3 -4 5 12 5 17 0 24 -2 18
-5z m1632 -213 c-43 -44 -81 -77 -84 -74 -6 6 140 154 154 154 5 0 -26 -36
-70 -80z m-6380 -85 c0 -26 -4 -30 -30 -33 -23 -3 -62 -35 -170 -140 l-140
-137 139 141 c81 83 136 147 134 155 -10 26 12 50 40 47 23 -2 27 -8 27 -33z
m3563 -231 c13 -9 27 -27 32 -40 l10 -24 467 -2 468 -3 -467 -2 -468 -3 -14
-29 c-21 -41 -72 -54 -116 -31 -25 13 -41 65 -30 94 11 29 47 56 75 56 11 0
31 -7 43 -16z m-758 -38 c0 -2 -8 -10 -17 -17 -16 -13 -17 -12 -4 4 13 16 21
21 21 13z m1803 -33 c-7 -2 -21 -2 -30 0 -10 3 -4 5 12 5 17 0 24 -2 18 -5z
m84 1 c-3 -3 -12 -4 -19 -1 -8 3 -5 6 6 6 11 1 17 -2 13 -5z m-1987 -68 c0 -2
-8 -10 -17 -17 -16 -13 -17 -12 -4 4 13 16 21 21 21 13z m-1975 -93 c-37 -3
-58 -11 -80 -31 -28 -26 -29 -26 -10 -2 30 37 36 40 90 38 l50 -2 -50 -3z
m248 0 c-24 -2 -62 -2 -85 0 -24 2 -5 4 42 4 47 0 66 -2 43 -4z m-1180 -357
c7 -19 -18 -40 -38 -32 -15 6 -20 28 -8 39 12 12 41 7 46 -7z"/>
<path d="M915 2349 c-4 -6 -5 -12 -2 -15 2 -3 7 2 10 11 7 17 1 20 -8 4z"/>
<path d="M0 5032 l0 -398 63 -62 63 -62 213 0 c198 0 215 1 238 20 14 11 20
20 14 20 -7 0 9 21 34 46 25 25 45 50 45 55 0 5 20 19 45 31 25 12 45 26 45
30 0 4 7 8 15 8 8 0 23 4 33 9 9 6 29 12 43 15 30 6 39 39 38 136 l0 55 -244
248 -244 247 -200 0 -201 0 0 -398z"/>
<path d="M1347 4703 c3 -7 6 -13 8 -13 2 0 5 6 8 13 3 8 -1 14 -8 14 -7 0 -11
-6 -8 -14z"/>
<path d="M1508 4652 c-10 -2 -18 -8 -18 -14 0 -5 7 -7 16 -4 13 5 15 2 11 -14
-6 -25 30 -63 54 -57 12 3 15 -1 12 -13 -3 -10 0 -21 6 -24 17 -11 14 -56 -4
-56 -8 0 -15 -5 -15 -11 0 -6 7 -9 15 -6 8 4 17 2 20 -2 2 -5 -4 -11 -15 -14
-11 -3 -20 -13 -19 -24 0 -10 3 -13 6 -5 2 6 10 12 16 12 19 0 47 58 47 96 0
76 -72 150 -132 136z m67 -63 c25 -6 26 -7 7 -8 -38 -2 -61 16 -54 41 6 23 6
23 12 -2 4 -17 15 -27 35 -31z m42 -121 c-3 -8 -6 -5 -6 6 -1 11 2 17 5 13 3
-3 4 -12 1 -19z"/>
<path d="M650 4550 c-9 -6 -10 -10 -3 -10 6 0 15 5 18 10 8 12 4 12 -15 0z"/>
<path d="M2575 4390 c-3 -5 -1 -10 4 -10 6 0 11 5 11 10 0 6 -2 10 -4 10 -3 0
-8 -4 -11 -10z"/>
<path d="M1706 4361 c-4 -7 -5 -15 -2 -18 9 -9 19 4 14 18 -4 11 -6 11 -12 0z"/>
<path d="M2623 4352 c-28 -3 -33 -8 -39 -38 -3 -19 -4 -37 -1 -40 9 -9 76 -22
81 -16 9 8 7 90 -1 94 -5 2 -22 2 -40 0z"/>
<path d="M1200 4180 c-12 -7 -10 -9 7 -7 12 0 19 5 17 9 -6 10 -6 10 -24 -2z"/>
<path d="M900 4176 c0 -2 7 -7 16 -10 8 -3 12 -2 9 4 -6 10 -25 14 -25 6z"/>
<path d="M953 4163 c11 -12 25 -19 33 -16 17 6 19 16 2 10 -7 -2 -22 3 -33 12
-20 16 -20 16 -2 -6z"/>
<path d="M1063 4147 c-4 -6 -1 -7 7 -2 10 6 12 4 7 -8 -9 -23 21 -46 35 -26 8
11 9 10 4 -5 -4 -12 0 -26 11 -36 10 -10 49 -52 87 -94 l70 -76 128 0 128 0 0
50 0 50 -68 0 -68 0 -48 49 c-27 28 -54 49 -60 48 -5 -1 -10 3 -11 8 0 15 -39
50 -55 51 -9 1 -16 -9 -16 -23 -2 -18 2 -23 13 -18 13 5 14 3 3 -10 -12 -15
-14 -15 -22 -1 -5 9 -7 20 -4 25 3 4 -14 5 -37 0 -43 -7 -52 -5 -52 14 0 13
-44 17 -52 4z m42 -14 c-2 -10 -4 -19 -4 -21 -1 -2 -6 0 -11 3 -8 5 -7 11 1
21 15 18 18 18 14 -3z"/>
<path d="M1570 3950 c0 -49 1 -50 30 -50 29 0 30 1 30 50 0 49 -1 50 -30 50
-29 0 -30 -1 -30 -50z"/>
<path d="M1660 3960 c0 -22 -1 -43 -2 -47 -2 -5 12 -9 30 -11 l32 -3 0 50 c0
50 -1 51 -30 51 -28 0 -30 -2 -30 -40z"/>
<path d="M1740 3950 l0 -50 35 0 35 0 0 50 0 50 -35 0 -35 0 0 -50z"/>
<path d="M1830 3950 l0 -50 35 0 c32 0 35 3 35 28 0 27 -37 72 -59 72 -7 0
-11 -20 -11 -50z"/>
</g>
</svg>
