<!--?xml version="1.0" standalone="no"?-->
              <svg id="sw-js-blob-svg" viewBox="0 0 100 100" xmlns="http://www.w3.org/2000/svg" version="1.1">
                    <defs> 
                        <linearGradient id="sw-gradient" x1="0" x2="1" y1="1" y2="0">
                            <stop id="stop1" stop-color="rgba(238, 92, 20, 1)" offset="0%"></stop>
                            <stop id="stop2" stop-color="rgba(251, 168, 31, 1)" offset="100%"></stop>
                        </linearGradient>
                    </defs>
                <path fill="url(#sw-gradient)" d="M15.2,-26.7C20.7,-23.3,26.6,-21,31.4,-16.8C36.2,-12.5,39.8,-6.3,40.7,0.5C41.5,7.2,39.5,14.4,35.7,20.5C32,26.5,26.4,31.4,20.2,33C13.9,34.7,7,33.1,0.3,32.6C-6.4,32.1,-12.8,32.6,-18.3,30.6C-23.9,28.5,-28.6,23.9,-32.1,18.4C-35.6,12.8,-37.7,6.4,-38.8,-0.6C-39.9,-7.7,-39.9,-15.4,-37.2,-22.2C-34.5,-29,-29,-34.9,-22.3,-37.6C-15.7,-40.4,-7.8,-40,-1.5,-37.4C4.9,-34.9,9.8,-30.2,15.2,-26.7Z" width="100%" height="100%" transform="translate(50 50)" stroke-width="0" style="transition: all 0.3s ease 0s;"></path>
              </svg>