<svg xmlns="http://www.w3.org/2000/svg" viewBox="0 0 500 500"><g id="freepik--background-simple--inject-283"><path d="M415.75,87l-1.9-3.13c-16-26.4-45-42.31-75.52-40.38a80.92,80.92,0,0,0-11.69,1.6c-27.76,6-51.92,26.94-61.93,53.83-5.89,15.82-7.54,34-18.71,46.58-14.55,16.33-39.24,16.84-60.95,16.17s-46.42-.1-60.89,16.3c-9.07,10.27-12,24.88-11.22,38.63,1.94,36.42,27.31,69,59.59,85.17s70.27,17.63,105.59,10.51c49.48-10,96.53-37.36,124.82-79.67S438.38,132.69,415.75,87Z" style="fill:#f5f5f5"></path></g><g id="freepik--Floor--inject-283"><path d="M463.76,480.68c0,.15-96.16.26-214.75.26s-214.77-.11-214.77-.26,96.14-.26,214.77-.26S463.76,480.54,463.76,480.68Z" style="fill:#263238"></path></g><g id="freepik--Rocket--inject-283"><path d="M150.88,480.71c-.12-.07,14.86-27.34,33.47-60.89s33.8-60.72,33.93-60.65-14.86,27.33-33.47,60.9S151,480.78,150.88,480.71Z" style="fill:#263238"></path><path d="M103.17,480.71l.45-.61,1.36-1.76,5.29-6.81,19.82-25.38c17-21.63,40.79-52,68.31-87.16l.16-.21.2.18,12.75,11.75.48.45H189.37l.23-.38c1.91,3.47,4,7.18,6,10.93l5.14,9.3.21.39h-27.5l.22-.38q7.15,12.18,13.92,23.69l.22.37h-.43l-32.53,0,.19-.36,18.15,25.91.22.32h-.39l-38.49-.05.12-.23,15,24.14,3.94,6.41,1,1.66.33.57-.37-.55c-.24-.38-.58-.92-1-1.63-.91-1.46-2.26-3.59-4-6.37L134.44,440.8l-.15-.23h.28l38.49-.06-.17.32L154.7,415l-.25-.36h33l-.22.37q-6.75-11.49-13.93-23.68l-.23-.39h27.51l-.22.38-5.15-9.3-6-10.93-.21-.39h22.4l-.17.45-12.74-11.76.37,0c-27.57,35.08-51.45,65.44-68.44,87.05L110.4,471.64l-5.35,6.75-1.39,1.74C103.34,480.52,103.17,480.71,103.17,480.71Z" style="fill:#263238"></path><path d="M377.34,480.2c-.12.07-15.31-27-33.92-60.38s-33.6-60.58-33.47-60.65,15.31,27,33.92,60.39S377.47,480.13,377.34,480.2Z" style="fill:#263238"></path><path d="M425.05,480.2s-.17-.19-.48-.57l-1.39-1.73-5.36-6.73L397.88,446,329.43,359.3l.37,0L317.07,371l-.18-.44H339.3l-.22.39L333,381.93l-5.11,9.2-.23-.39h27.52l-.23.38L341,414.72l-.21-.37h33l-.26.36L355.33,440.5l-.16-.32,38.49.05h.27l-.14.23-15.08,24c-1.75,2.77-3.09,4.9-4,6.34l-1,1.63c-.23.36-.36.54-.36.54s.1-.19.33-.56l1-1.65,3.95-6.38,14.95-24.05.13.23-38.49.05h-.39l.22-.32,18.15-25.8.18.36-32.52,0h-.43l.22-.37q6.75-11.46,13.92-23.6l.22.39H327.23l.22-.38,5.1-9.2,6.08-10.95.23.38H316.23l.49-.45L329.46,359l.2-.18.17.21,68.3,86.8L418,471.07l5.29,6.77,1.35,1.76C424.91,480,425.05,480.2,425.05,480.2Z" style="fill:#263238"></path><path d="M381.84,445.45A38.7,38.7,0,0,0,347.89,433a26,26,0,0,0-7.92-23.8c-6.48-5.87-19.17-8.6-27.54-6.09l.26-50.36c-1.69-.08-35.75,0-49.32,0s-47.64-.07-49.33,0l.26,50.36c-8.37-2.51-21.06.22-27.54,6.09a26,26,0,0,0-7.92,23.8,38,38,0,0,0-42.09,47.75H390A38.72,38.72,0,0,0,381.84,445.45Z" style="fill:#fafafa"></path><path d="M381.84,445.45s.55.62,1.57,1.87a38.89,38.89,0,0,1,3.83,6.09,39.68,39.68,0,0,1,3.62,11.2,38.49,38.49,0,0,1-.77,16.13l0,.08H390L136.75,481h-.19l-.05-.18a38.67,38.67,0,0,1-.82-16.11,39.44,39.44,0,0,1,5.9-15.31,37.27,37.27,0,0,1,12.06-11.47,40.11,40.11,0,0,1,16-5.34,36.94,36.94,0,0,1,9.22.15l-.29.31A26.16,26.16,0,0,1,188,407.78a31.46,31.46,0,0,1,12.74-5.25,29.61,29.61,0,0,1,13.6.3l-.33.24c-.09-17.27-.18-34.09-.26-50.36v-.25H214l98.67,0h.2v.21c-.11,18.34-.21,35.17-.3,50.36l-.22-.16a26.36,26.36,0,0,1,8.13-.91,36.5,36.5,0,0,1,7.76,1.14c4.94,1.3,9.52,3.5,12.78,6.87A26.19,26.19,0,0,1,348,433l-.13-.14A38.59,38.59,0,0,1,364,434.1a40.19,40.19,0,0,1,10.65,5,39.37,39.37,0,0,1,5.56,4.56c1.11,1.18,1.65,1.79,1.65,1.79l-.43-.43-1.26-1.31a41.39,41.39,0,0,0-5.58-4.51,40.18,40.18,0,0,0-10.64-4.93,38.3,38.3,0,0,0-16-1.2l-.16,0,0-.15a26,26,0,0,0-6.92-22.73c-3.23-3.31-7.76-5.48-12.66-6.75a35.94,35.94,0,0,0-7.69-1.12,26.13,26.13,0,0,0-8,.9l-.23.07v-.24c.07-15.2.15-32,.24-50.36l.19.21-98.63,0,.23-.24q.14,24.41.28,50.36v.34l-.33-.09a29.2,29.2,0,0,0-13.35-.29,31,31,0,0,0-12.53,5.17,25.62,25.62,0,0,0-9.25,24.71l.07.36-.36-.06a36.93,36.93,0,0,0-9.1-.14,39.54,39.54,0,0,0-15.79,5.27A36.55,36.55,0,0,0,142,449.65a38.86,38.86,0,0,0-5.83,15.1,38.12,38.12,0,0,0,.8,15.89l-.25-.19,253.23.14-.11.09a38.3,38.3,0,0,0,.82-16,40.2,40.2,0,0,0-3.56-11.18,40.83,40.83,0,0,0-3.76-6.11l-1.15-1.42Z" style="fill:#263238"></path><path d="M324.48,454.34a1.36,1.36,0,0,1,0-.29c0-.21,0-.49-.06-.85a12.44,12.44,0,0,0-.15-1.38,17,17,0,0,0-.35-1.87A23.85,23.85,0,0,0,311.36,434a20.92,20.92,0,0,0-9.67-2.17,23.91,23.91,0,0,0-10.77,2.81,22.51,22.51,0,0,0-8.83,8.28l-.19.31-.22-.28A26.92,26.92,0,0,0,263,433.28a25.13,25.13,0,0,0-10.13,1.26,26.27,26.27,0,0,0-8.48,4.94,26.74,26.74,0,0,0-8.89,15.42l-.06.34-.29-.19a22.19,22.19,0,0,0-16.47-3.22,21.41,21.41,0,0,0-11.42,6.45,22.46,22.46,0,0,0-5.26,9.44l-.15.56c0,.13-.06.19-.07.19a15.74,15.74,0,0,1,.8-3,22.28,22.28,0,0,1,9.25-11.35,21,21,0,0,1,6.77-2.69,22.54,22.54,0,0,1,16.81,3.21l-.36.15a27.06,27.06,0,0,1,9-15.72,26.79,26.79,0,0,1,8.64-5.05A25.31,25.31,0,0,1,263,432.77a27.3,27.3,0,0,1,19.07,9.91l-.41,0a23,23,0,0,1,9-8.45,24.42,24.42,0,0,1,11-2.82,21.24,21.24,0,0,1,9.84,2.26,23.9,23.9,0,0,1,12.52,16.21,16.5,16.5,0,0,1,.3,1.89,8.54,8.54,0,0,1,.11,1.4c0,.35,0,.64,0,.85A1.29,1.29,0,0,1,324.48,454.34Z" style="fill:#263238"></path><path d="M273,419.9c-.05,0-.15-.85-.63-2.34a17.39,17.39,0,0,0-3.19-5.75,16.26,16.26,0,0,0-8.15-5.3,17,17,0,0,0-11.93,1.1l-.32.16-.05-.35a16.37,16.37,0,0,0-1.1-4,17.2,17.2,0,0,0-9.5-9.36,15,15,0,0,0-5.84-1.07,17.6,17.6,0,0,0-11.67,4.58c-1.31,1.22-1.88,2.06-1.93,2a2.83,2.83,0,0,1,.41-.6,12.62,12.62,0,0,1,1.38-1.57,17.16,17.16,0,0,1,6.55-4,17.73,17.73,0,0,1,5.25-.9,15.58,15.58,0,0,1,6,1.05,17.64,17.64,0,0,1,9.81,9.61,16.93,16.93,0,0,1,1.12,4.1l-.37-.2a17.3,17.3,0,0,1,12.28-1.08,16,16,0,0,1,4.89,2.32,17.27,17.27,0,0,1,3.41,3.2,16.75,16.75,0,0,1,3.1,5.92,12,12,0,0,1,.39,1.76A2.49,2.49,0,0,1,273,419.9Z" style="fill:#263238"></path><path d="M280.47,421.47c-.14,0-.26-10.76-.26-24s.12-24,.26-24,.27,10.76.27,24S280.62,421.47,280.47,421.47Z" style="fill:#263238"></path><path d="M286.26,398.78c-.14,0-.26-7.87-.26-17.58s.12-17.57.26-17.57.26,7.86.26,17.57S286.4,398.78,286.26,398.78Z" style="fill:#263238"></path><polygon points="318.32 317.32 318.1 299.96 261.16 299.96 211.13 299.96 210.96 316.48 197.19 345.38 197.19 363.24 267.18 362.19 331.15 363.21 331.15 345.37 318.32 317.32" style="fill:#f5f5f5"></polygon><path d="M318.32,317.32s.08.15.23.47.37.79.66,1.39c.58,1.25,1.43,3.07,2.53,5.45l9.54,20.68v.06c0,5.26,0,11.27,0,17.84v.18h-.18l-59.32-.89-4.29-.07-4.35.06-8.86.14-18.34.28-38.79.59h-.26V345.33l0-.06,13.78-28.9,0,.1q.09-8.45.17-16.51v-.25h.24l107,.14h.11V300c.05,5.63.08,10,.11,12.9,0,1.46,0,2.57,0,3.33s0,1.13,0,1.13,0-.38,0-1.12,0-1.87-.07-3.32c0-2.94-.12-7.28-.21-12.92l.1.11-107,.13.24-.24q-.08,8.07-.16,16.52v.06l0,0c-4.44,9.31-9,19-13.77,28.91l0-.11v17.85l-.26-.26L236,362.4l18.35-.27,8.86-.12,4.35-.06,4.29.08,59.33,1-.18.17c0-6.57,0-12.58,0-17.84l0,.06c-4.06-8.93-7.24-15.95-9.42-20.76-1.08-2.39-1.9-4.22-2.46-5.47-.27-.61-.48-1.08-.63-1.4Z" style="fill:#263238"></path><rect x="197.58" y="345.63" width="132.85" height="16.9" style="fill:#e0e0e0"></rect><path d="M209.88,215.06l-.36.31c-20.71,18.23-32.74,45.85-32.76,75h0l33.07-6.91Z" style="fill:#EE5C14"></path><rect x="209.69" y="211.8" width="109.59" height="75.95" style="fill:#f5f5f5"></rect><path d="M264.4,40.86c-8.57,0-24.34,24.32-39,65-1,2.77-1.93,5.27-2.8,7.64V116h83.1v-2.25c-.75-2.74-1.54-5.39-2.38-7.88-13.72-40.86-30.34-65-38.91-65" style="fill:#EE5C14"></path><path d="M264.4,40.86l.41,0a5,5,0,0,1,1.21.2,12.56,12.56,0,0,1,4.13,2.31c3.27,2.57,7.22,7.24,11.31,13.66a180.4,180.4,0,0,1,12.6,24.11c2.09,4.77,4.16,9.9,6.17,15.33,1,2.71,2,5.51,3,8.37s1.79,5.85,2.72,8.86v.06c0,.7,0,1.47,0,2.25v.24h-.25l-41.58,0-41.52,0h-.25v-2.85l0,0c2.17-5.87,4.2-11.56,6.31-16.94S232.89,86,235,81.24a199.3,199.3,0,0,1,12.55-24c4-6.43,7.89-11.16,11.12-13.77a12.27,12.27,0,0,1,4.09-2.34,5,5,0,0,1,1.21-.2l.41,0-.41.06a5.93,5.93,0,0,0-1.18.24,12.51,12.51,0,0,0-4,2.39c-3.17,2.63-7,7.36-11,13.8a202.66,202.66,0,0,0-12.44,24.06c-2.11,4.74-4.21,9.82-6.3,15.2s-4.1,11.06-6.27,16.94V116l-.25-.25h83.1l-.25.25v-2.18c-.92-3-1.75-6-2.69-8.84s-1.95-5.65-3-8.36c-2-5.43-4-10.55-6.12-15.32A181.94,181.94,0,0,0,281.2,57.21c-4-6.43-7.94-11.11-11.15-13.7A13,13,0,0,0,266,41.16a6,6,0,0,0-1.19-.24Z" style="fill:#263238"></path><path d="M319.27,213.23l.37.32c21.25,18.71,33.59,47,33.61,76.95h0l-33.92-7.1Z" style="fill:#EE5C14"></path><path d="M210.27,201.57s-.48-28,1.15-40.56,6.4-35,6.4-35h93.79a210.11,210.11,0,0,1,6.32,41.71c.84,21.66.83,34.18.83,34.18Z" style="fill:#f5f5f5"></path><path d="M210.27,201.57l.53,0h29.89l78.07.09-.24.24c-.46-21.14.1-44.67-5.43-68.57-.54-2.45-1.1-4.89-1.73-7.25l.25.19-93.79,0L218,126c-2.36,11.28-4.39,21.62-5.83,30.81q-.55,3.43-.9,6.68c-.2,2.16-.34,4.24-.46,6.24-.22,4-.32,7.69-.4,11-.15,6.64-.15,11.84-.16,15.39v5.07c0,.22,0,.35,0,.35s0-.11,0-.35,0-.59,0-1c0-.93,0-2.28-.07-4,0-3.55-.07-8.75,0-15.39.06-3.33.15-7,.36-11q.15-3,.43-6.26c.23-2.17.51-4.4.87-6.7,1.42-9.21,3.42-19.56,5.76-30.85l0-.17h.17l93.79-.05h.2l.05.19c.63,2.38,1.2,4.82,1.74,7.28a204,204,0,0,1,4.62,35.41c.43,11.53.73,22.66.78,33.27v.24h-.24l-78.23-.33-22.32-.12-5.92-.05-1.52,0Z" style="fill:#263238"></path><path d="M268.8,243.83c0,2.5-1.93,4.79-6.16,4.79A10.17,10.17,0,0,1,257,247l1.33-2.63a7.24,7.24,0,0,0,4.25,1.34c1.72,0,2.78-.7,2.78-1.91s-.83-1.83-2.78-1.83H261v-2.27l3.05-3.46h-6.32v-2.76h10.4v2.23l-3.35,3.82C267.44,240,268.8,241.64,268.8,243.83Z" style="fill:#263238"></path><path d="M270.53,177.07v2.8H259.3v-2.23l5.73-5.41c1.31-1.25,1.55-2,1.55-2.74,0-1.16-.81-1.84-2.38-1.84a3.65,3.65,0,0,0-3.08,1.48l-2.5-1.61a6.88,6.88,0,0,1,5.9-2.76c3.31,0,5.52,1.7,5.52,4.39,0,1.45-.41,2.76-2.49,4.7l-3.41,3.22Z" style="fill:#263238"></path><path d="M270.67,331h-2.42v3.12H264.9V331h-8v-2.31l7-9.42h3.61l-6.5,8.93h4v-2.78h3.25v2.78h2.42Z" style="fill:#263238"></path><path d="M265.15,81.84V96.7h-3.43V84.6h-3V81.84Z" style="fill:#263238"></path><path d="M312.76,130.64a4.5,4.5,0,0,1-.69,0l-2,0-7.53.07-26.2.09.21-.12-9.28,16.7c-.52.94-1,1.88-1.53,2.75l-.07.13h-.16l-37.16-.08-11.16-.08-3-.05-.78,0-.27,0a1.39,1.39,0,0,1,.27,0l.78,0,3-.05,11.16-.08,37.16-.08-.22.14c.48-.88,1-1.81,1.53-2.76l9.3-16.68.07-.13h.15l26.2.1,7.53.07,2,0A4.5,4.5,0,0,1,312.76,130.64Z" style="fill:#e0e0e0"></path><rect x="222.59" y="163.91" width="14.83" height="8" style="fill:#e0e0e0"></rect><polygon points="235.7 213.23 246.68 257.9 269.59 258.28 279.66 287.62 271 287.75 263.27 260.1 243.47 260.1 235.7 213.23" style="fill:#ebebeb"></polygon><path d="M235.46,211.8a1,1,0,0,1,.07.25l.15.72q.18,1,.51,2.79l1.79,10.3c1.47,8.73,3.48,20.73,5.71,34l0,.21-.26-.21,19.8,0h.18l.05.17c2.23,8.15,4.13,15.06,5.48,20,.65,2.41,1.16,4.33,1.53,5.7.16.63.28,1.13.38,1.51a4.31,4.31,0,0,1,.11.53,1.81,1.81,0,0,1-.18-.5c-.12-.38-.27-.88-.46-1.5-.4-1.36-.95-3.27-1.65-5.66-1.4-4.91-3.36-11.8-5.67-19.93l.23.17-19.8,0h-.22l0-.22,0-.22c-2.17-13.26-4.14-25.26-5.56-34-.69-4.33-1.24-7.84-1.63-10.32-.18-1.19-.32-2.13-.42-2.81,0-.3-.07-.54-.09-.73A1,1,0,0,1,235.46,211.8Z" style="fill:#e0e0e0"></path><path d="M319.3,249.78a3.26,3.26,0,0,1-.65.05l-1.87,0-6.93.08-23.14.08h-.26v-2.95c0-9.72.05-18.52.07-25,0-3.15.06-5.72.08-7.56,0-.86,0-1.54,0-2.06a3.42,3.42,0,0,1,.06-.72,5.86,5.86,0,0,1,.05.72c0,.52,0,1.2.05,2.06,0,1.84.05,4.41.08,7.56,0,6.43.05,15.23.08,25v2.69l-.26-.26,23.14.08,6.93.08,1.87,0A2.51,2.51,0,0,1,319.3,249.78Z" style="fill:#e0e0e0"></path><path d="M316.33,150.08l-.32,0-.93,0-3.54.06-12.74.09.21-.22c0,6.59,0,14.6.05,23.24,0,7.66,0,14.83,0,20.89l-.22-.23,14.42.1,4,.06,1.07,0a1.26,1.26,0,0,1,.36,0l-.36,0-1.07,0-4,.06-14.42.09h-.23v-.22c0-6.06,0-13.23,0-20.89,0-8.64,0-16.65,0-23.24v-.21h.22l12.74.09,3.54.06.93,0A1.34,1.34,0,0,1,316.33,150.08Z" style="fill:#e0e0e0"></path><g style="opacity:0.30000000000000004"><path d="M319.3,287.62c-34.49-9.58-71.23-6.07-108.78,0Z"></path></g><g style="opacity:0.30000000000000004"><path d="M318.76,201.86c-45.24-7.65-71.12-6.36-108.67-.28Z"></path></g><g style="opacity:0.30000000000000004"><path d="M305.69,116c-39.53-7.65-50.3-6.08-83.1,0Z"></path></g><rect x="300.27" y="258.34" width="3.47" height="14.97" style="fill:#EE5C14"></rect><path d="M198.19,344.61c0-.14,29.77-.21,66.48-.14s66.48.23,66.48.37-29.76.21-66.48.15S198.19,344.76,198.19,344.61Z" style="fill:#263238"></path><path d="M318.6,316.48c0,.14-24,.26-53.67.26s-53.68-.12-53.68-.26,24-.26,53.68-.26S318.6,316.33,318.6,316.48Z" style="fill:#263238"></path><path d="M318.6,311.84c0,.14-24,.26-53.67.26s-53.68-.12-53.68-.26,24-.26,53.68-.26S318.6,311.69,318.6,311.84Z" style="fill:#263238"></path><path d="M318.6,307.2c0,.14-24,.26-53.67.26s-53.68-.12-53.68-.26,24-.26,53.68-.26S318.6,307.06,318.6,307.2Z" style="fill:#263238"></path><path d="M318.6,302.56c0,.14-24,.26-53.67.26s-53.68-.12-53.68-.26,24-.26,53.68-.26S318.6,302.42,318.6,302.56Z" style="fill:#263238"></path><path d="M331.15,354.6c0,.15-30,.26-67,.26s-67-.11-67-.26,30-.26,67-.26S331.15,354.46,331.15,354.6Z" style="fill:#263238"></path><path d="M331.15,350c0,.15-30,.27-67,.27s-67-.12-67-.27,30-.26,67-.26S331.15,349.82,331.15,350Z" style="fill:#263238"></path><path d="M205,225.19a3.51,3.51,0,0,1-.36.53l-1.1,1.45c-.5.62-1.08,1.39-1.74,2.3s-1.43,1.93-2.21,3.11c-1.63,2.31-3.41,5.17-5.29,8.4s-3.72,6.91-5.47,10.84-3.17,7.81-4.35,11.35c-.57,1.78-1.11,3.47-1.54,5.08s-.84,3.1-1.18,4.47-.59,2.63-.84,3.72-.43,2.05-.58,2.83-.26,1.32-.35,1.78a2.78,2.78,0,0,1-.16.62,2.71,2.71,0,0,1,.05-.63c.07-.47.16-1.07.26-1.81s.27-1.74.49-2.85.43-2.37.77-3.74.66-2.9,1.12-4.51.94-3.32,1.5-5.11a118.4,118.4,0,0,1,4.33-11.41,121.88,121.88,0,0,1,5.53-10.87c1.92-3.23,3.74-6.08,5.41-8.37.8-1.17,1.6-2.18,2.28-3.07s1.29-1.66,1.81-2.26l1.18-1.39A3.93,3.93,0,0,1,205,225.19Z" style="fill:#fff"></path><path d="M263.2,46.51a11.64,11.64,0,0,0-2.7,1.13,17.92,17.92,0,0,0-5.5,5.75c-3.59,5.77-8.15,14-12.73,23.37s-8.23,18-10.72,24.38c-1.25,3.18-2.22,5.76-2.89,7.54-.32.86-.58,1.54-.77,2.06a4.76,4.76,0,0,1-.31.71,5.4,5.4,0,0,1,.21-.74l.68-2.09c.61-1.81,1.53-4.42,2.73-7.61,2.41-6.39,6-15.12,10.6-24.48a247.81,247.81,0,0,1,12.9-23.35,17.49,17.49,0,0,1,5.7-5.72,8.58,8.58,0,0,1,2.05-.82A3.29,3.29,0,0,1,263.2,46.51Z" style="fill:#fff"></path><path d="M213.11,197.18a2.94,2.94,0,0,1,0-.68c0-.5,0-1.15,0-2,0-1.7.11-4.17.26-7.21.31-6.08,1-14.47,2.2-23.68s2.79-17.49,4.09-23.43c.64-3,1.2-5.38,1.63-7,.2-.79.37-1.42.49-1.9a3,3,0,0,1,.21-.65,3.11,3.11,0,0,1-.11.67l-.39,1.92c-.37,1.66-.87,4.07-1.47,7-1.21,6-2.7,14.23-3.93,23.43s-2,17.57-2.35,23.64c-.2,3-.35,5.49-.43,7.19q-.08,1.2-.12,1.95A2.79,2.79,0,0,1,213.11,197.18Z" style="fill:#fff"></path><path d="M213.84,276c-.14,0-.26-12.84-.26-28.68s.12-28.69.26-28.69.26,12.84.26,28.69S214,276,213.84,276Z" style="fill:#fff"></path><g style="opacity:0.30000000000000004"><path d="M209.83,281.68s1-44.91,0-66.62c-4,10.5-8.38,22.52-9.25,33.85A50.71,50.71,0,0,0,209.83,281.68Z"></path></g><path d="M210.23,287.75l.52,0,1.52,0,5.94,0,22.39-.07,78.67-.09-.23.23c0-23,0-48.8,0-75.95l.26.26h-.56l-109-.64.21-.21c0,23.26-.07,42.39-.09,55.72,0,6.65-.05,11.85-.06,15.41,0,1.76,0,3.11,0,4s0,1.38,0,1.38,0-.47,0-1.38,0-2.27,0-4c0-3.56,0-8.76-.06-15.41,0-13.33,0-32.46-.09-55.72V211h.21l109,.54h.81v.26c0,27.15,0,52.93,0,75.95V288h-.24l-78.67-.09-22.39-.07-5.94,0-1.52,0C210.41,287.77,210.23,287.75,210.23,287.75Z" style="fill:#263238"></path><path d="M331.15,359.24c0,.15-30,.26-67,.26s-67-.11-67-.26,30-.26,67-.26S331.15,359.1,331.15,359.24Z" style="fill:#263238"></path></g><g id="freepik--Audience--inject-283"><path d="M398,330.27a6.85,6.85,0,0,1-.78.05l-2.25.05-8.24.08-27.19.08h-7.21l-.08-.07-15.75-15.88-4.61-4.72-1.22-1.28a3.83,3.83,0,0,1-.4-.47,3.83,3.83,0,0,1,.47.4l1.28,1.22,4.72,4.61,15.88,15.76-.19-.08h7.11l27.19.07,8.24.08,2.25,0A4,4,0,0,1,398,330.27Z" style="fill:#263238"></path><circle cx="331.18" cy="308.76" r="3.67" style="fill:#263238"></circle><circle cx="407.23" cy="322.57" r="29.99" transform="translate(-91.37 176.67) rotate(-22.07)" style="fill:#455a64"></circle><path d="M409.67,323a6.91,6.91,0,0,0,4.13-6.4,6.51,6.51,0,1,0-13-.06A6.91,6.91,0,0,0,405,323c-10,1.51-9.54,12.37-9.54,12.37l23.63.11S419.58,324.51,409.67,323Z" style="fill:#fff"></path></g><g id="freepik--Setting--inject-283"><path d="M112.43,168.46a1.1,1.1,0,0,1,.24,0l.7,0,2.71,0,10-.08L160,168.2h.12l.08.09c1.54,1.78,3.17,3.65,4.83,5.54l25.43,29.31,7.66,8.93,2.06,2.44.53.64a1.5,1.5,0,0,1,.16.23l-.2-.19-.57-.61-2.14-2.38c-1.86-2.11-4.51-5.12-7.78-8.81l-25.55-29.21-4.82-5.55.19.09-33.83-.09-10-.07-2.71-.05-.7,0Z" style="fill:#263238"></path><circle cx="200.82" cy="215.38" r="3.67" style="fill:#263238"></circle><circle cx="88.52" cy="163.54" r="29.99" style="fill:#455a64"></circle><path d="M82.61,153.75a11.12,11.12,0,0,1,2.77-1.2l.57-2.74,4.62-.08.67,2.71a11.42,11.42,0,0,1,2.81,1.11L96.39,152l3.33,3.21-1.45,2.39a11.68,11.68,0,0,1,1.2,2.77l2.74.57.08,4.62-2.72.67a11.64,11.64,0,0,1-1.1,2.81L100,171.4l-3.21,3.33-2.4-1.45a11.06,11.06,0,0,1-2.76,1.2l-.57,2.74-4.63.08-.67-2.72a11.57,11.57,0,0,1-2.8-1.1L80.62,175l-3.33-3.21,1.45-2.39a11.28,11.28,0,0,1-1.2-2.77l-2.74-.57-.08-4.63,2.71-.67a11.35,11.35,0,0,1,1.11-2.8L77,155.63l3.22-3.33,2.39,1.45Zm2.47,6.16a5,5,0,1,0,7-.12A5,5,0,0,0,85.08,159.91Z" style="fill:#fff"></path><path d="M85.08,159.91a3.92,3.92,0,0,1,.92-.81,4.92,4.92,0,0,1,3.24-.76,5,5,0,0,1,2.2.78,5.11,5.11,0,0,1,1.78,2,4.69,4.69,0,0,1,.45,1.4,4.89,4.89,0,0,1,0,1.53,5.07,5.07,0,0,1-4.19,4.34,4.91,4.91,0,0,1-1.53,0,4.77,4.77,0,0,1-1.41-.4,5,5,0,0,1-2.06-1.71,5,5,0,0,1-.21-5.43,3.84,3.84,0,0,1,.78-1s-.3.33-.69,1a4.93,4.93,0,0,0-.54,3.18,4.74,4.74,0,0,0,.85,2.06,4.88,4.88,0,0,0,2,1.61,4.59,4.59,0,0,0,1.34.37,4.36,4.36,0,0,0,1.44,0,4.79,4.79,0,0,0,4-4.1,4.15,4.15,0,0,0,0-1.45,4.42,4.42,0,0,0-.41-1.32,4.87,4.87,0,0,0-1.68-1.92,4.8,4.8,0,0,0-2.09-.78,4.89,4.89,0,0,0-3.16.66A11.31,11.31,0,0,0,85.08,159.91Z" style="fill:#fff"></path><path d="M82.61,153.75l-.15-.08L82,153.4l-1.8-1.06h0l-3.19,3.35v-.09c.46.71,1,1.49,1.54,2.33l0,0,0,0a11.42,11.42,0,0,0-1.09,2.79v0l-.05,0-2.72.67.08-.1c0,1.46.06,3,.09,4.63l-.09-.11,2.74.56.07,0,0,.07a11.16,11.16,0,0,0,1.19,2.73l0,.06,0,.07-1.44,2.39,0-.16,3.33,3.21h-.16l2.33-1.54.07,0,.07,0a11.67,11.67,0,0,0,2.78,1.09l.08,0,0,.08.67,2.72-.14-.11,4.62-.08-.13.11c.18-.87.37-1.8.57-2.74l0-.08.08,0a11.4,11.4,0,0,0,2.73-1.18h0l.08,0,.07,0,2.39,1.45-.18,0,3.22-3.33,0,.17-1.53-2.34,0-.07,0-.07a11.12,11.12,0,0,0,1.1-2.77l0-.08.08,0,2.72-.67-.11.14c0-1.58-.05-3.13-.07-4.63l.1.13-2.74-.58h-.07l0-.08a11.6,11.6,0,0,0-1.19-2.74l0-.06,0-.06,1.45-2.39,0,.14-3.32-3.22.14,0-2.35,1.52,0,0,0,0a11.44,11.44,0,0,0-2.78-1.11h-.06v-.05c-.24-1-.45-1.88-.66-2.72l.09.06-4.63.06.06-.05c-.24,1.09-.43,2-.59,2.74v0h0a11.73,11.73,0,0,0-2.12.81l-.49.26-.17.09.15-.11.49-.28a11.36,11.36,0,0,1,2.11-.86l0,0,.55-2.74v-.05H86l4.62-.1h.07l0,.07c.2.84.43,1.72.67,2.71l-.07-.07a11.43,11.43,0,0,1,2.84,1.11H94c.74-.49,1.52-1,2.34-1.54l.07,0,.06.06c1.06,1,2.16,2.08,3.34,3.2l.07.07-.05.08-1.45,2.39v-.12a11.46,11.46,0,0,1,1.22,2.79l-.1-.09,2.74.57.11,0V161c0,1.5,0,3,.08,4.62v.11l-.11,0-2.72.66.1-.1a11.7,11.7,0,0,1-1.11,2.85V169l1.54,2.34.06.09-.08.08-3.21,3.33-.08.09-.1-.06-2.39-1.45h.15a12,12,0,0,1-2.8,1.22l.1-.11c-.2.94-.39,1.87-.57,2.74l0,.11h-.11l-4.63.08h-.11l0-.11c-.22-.94-.45-1.86-.66-2.72l.1.11a12.19,12.19,0,0,1-2.84-1.12H83l-2.34,1.53-.09.06-.07-.07-3.33-3.22-.07-.07.05-.09c.51-.83,1-1.65,1.45-2.39v.13a11.86,11.86,0,0,1-1.21-2.8l.09.08-2.74-.57-.08,0v-.09c0-1.62,0-3.17-.08-4.63v-.08l.08,0,2.72-.66-.07.07a11.69,11.69,0,0,1,1.12-2.82V158l-1.53-2.34,0,0,0,0,3.24-3.31,0,0,0,0c.77.48,1.36.84,1.76,1.1l.46.28Z" style="fill:#fff"></path></g><g id="freepik--Chart--inject-283"><path d="M398.07,142a4,4,0,0,1-.78.06l-2.24,0-8.24.09-27.19.07h-7.11l.18-.08-15.88,15.76-4.71,4.6-1.29,1.23a3.83,3.83,0,0,1-.47.4,3.83,3.83,0,0,1,.4-.47l1.23-1.28c1.11-1.15,2.67-2.74,4.6-4.72,4-4,9.49-9.56,15.76-15.88l.07-.07h7.22l27.19.08,8.24.08,2.24.05A6.85,6.85,0,0,1,398.07,142Z" style="fill:#263238"></path><circle cx="331.31" cy="163.46" r="3.67" style="fill:#263238"></circle><circle cx="416.08" cy="138.46" r="29.99" style="fill:#455a64"></circle><rect x="402.87" y="125.9" width="7.36" height="23.13" style="fill:#fff"></rect><rect x="413.42" y="129.78" width="7.36" height="19.04" style="fill:#fff"></rect><rect x="423.96" y="135.69" width="7.36" height="12.96" style="fill:#fff"></rect></g><g id="freepik--Idea--inject-283"><path d="M132.28,65.27l.26,0,.74,0,2.87,0,10.54-.08L181.45,65h11l.07.08,18.58,20.07,5.4,5.92,1.44,1.6a5.38,5.38,0,0,1,.47.57,4.89,4.89,0,0,1-.54-.51l-1.5-1.54-5.51-5.82c-4.7-5-11.23-12-18.71-20l.19.09H181.45l-34.76-.07-10.54-.09-2.87-.05-.74,0A.9.9,0,0,1,132.28,65.27Z" style="fill:#263238"></path><circle cx="217.49" cy="92.6" r="3.67" style="fill:#263238"></circle><circle cx="115.17" cy="61.34" r="29.99" style="fill:#455a64"></circle><path d="M126.45,58.09A11.59,11.59,0,1,0,111.08,69L111,72.7l7.92.08V68.93A11.57,11.57,0,0,0,126.45,58.09Z" style="fill:#fff"></path><path d="M119,74.89a35.82,35.82,0,0,1-4,.12,33,33,0,0,1-4-.12,33,33,0,0,1,4-.12A33.19,33.19,0,0,1,119,74.89Z" style="fill:#fff"></path><path d="M116.35,77.94a3.2,3.2,0,0,1-1.42.16,3.25,3.25,0,0,1-1.42-.25,28.87,28.87,0,0,1,2.84.09Z" style="fill:#fff"></path><path d="M112.65,72.7s0,0,0-.13v-.39c0-.36,0-.86,0-1.5,0-1.32.08-3.2.13-5.52,0-1.16.06-2.44.1-3.8a2.55,2.55,0,0,0-.13-1,.65.65,0,0,0-.71-.47.94.94,0,0,0-.63.7,1.43,1.43,0,0,0,.13,1,2.33,2.33,0,0,0,1.8,1.2,2.39,2.39,0,0,0,2.1-.84,3.59,3.59,0,0,0,.88-2.26,2.18,2.18,0,0,0-.24-1.19.89.89,0,0,0-1-.42.87.87,0,0,0-.47,1,2.24,2.24,0,0,0,.56,1.09,4.36,4.36,0,0,0,1.94,1.5,2.35,2.35,0,0,0,1.17.14,2.42,2.42,0,0,0,1.06-.44,1.89,1.89,0,0,0,.67-.89,1.34,1.34,0,0,0-.07-1,.9.9,0,0,0-.79-.55,1.15,1.15,0,0,0-.84.5,4.87,4.87,0,0,0-.49,2c-.14,1.36-.24,2.63-.33,3.79-.16,2.31-.28,4.19-.37,5.51,0,.63-.08,1.13-.1,1.49l0,.39a1.11,1.11,0,0,1,0,.13s0,0,0-.13v-.39c0-.36,0-.86.05-1.5.06-1.3.15-3.18.3-5.51.08-1.16.16-2.43.3-3.8,0-.34.08-.69.14-1a2.62,2.62,0,0,1,.38-1,1.34,1.34,0,0,1,1-.6,1.14,1.14,0,0,1,1,.66,1.55,1.55,0,0,1,.08,1.23,2,2,0,0,1-.74,1,2.61,2.61,0,0,1-1.17.5,2.79,2.79,0,0,1-1.28-.15,4.61,4.61,0,0,1-2-1.58,2.58,2.58,0,0,1-.61-1.21,1,1,0,0,1,1.9-.71,2.34,2.34,0,0,1,.28,1.33,3.83,3.83,0,0,1-.94,2.41,2.64,2.64,0,0,1-2.31.91,2.56,2.56,0,0,1-2-1.33,1.69,1.69,0,0,1-.14-1.19,1.13,1.13,0,0,1,.8-.85.73.73,0,0,1,.59.13,1.06,1.06,0,0,1,.35.47,2.85,2.85,0,0,1,.14,1.07c0,1.37-.09,2.65-.13,3.81-.09,2.32-.16,4.19-.21,5.51,0,.64,0,1.14-.06,1.5l0,.39A.6.6,0,0,1,112.65,72.7Z" style="fill:#455a64"></path><path d="M117,72.73s0,0,0-.16v-.39l.06-1.5c0-1.23.14-3.15.29-5.51.07-1,.14-2,.24-3.11a3.18,3.18,0,0,1-.51-.13,3.88,3.88,0,0,1-.9-.47,3.18,3.18,0,0,1-.5.7,2.69,2.69,0,0,1-2,1l-.32,0-.26,0c0,.36,0,.72,0,1.08l0,1c-.09,2.32-.16,4.2-.21,5.52,0,.63,0,1.13-.07,1.49v.18c0,.08,0,.15,0,.21s0,.16,0,.16h0s0,0,0-.16v-.8c0-.31,0-.67,0-1.09l.13-5.52.06-2.19a2.49,2.49,0,0,1-1.49-1.23,1.67,1.67,0,0,1-.14-1.2,1.19,1.19,0,0,1,.81-.88.82.82,0,0,1,.62.14,1,1,0,0,1,.35.48,2.66,2.66,0,0,1,.15,1.08c0,.48,0,.94-.05,1.39l.29,0a2.35,2.35,0,0,0,2.07-.83,3.29,3.29,0,0,0,.47-.68,5.87,5.87,0,0,1-.92-.94,2.66,2.66,0,0,1-.62-1.23,1.15,1.15,0,0,1,.64-1.25,1.12,1.12,0,0,1,1.31.53,2.36,2.36,0,0,1,.29,1.34,4,4,0,0,1-.33,1.46,3.32,3.32,0,0,0,.87.46,3.17,3.17,0,0,0,.44.12c0-.14,0-.27,0-.41l0-.29c0-.24.06-.5.1-.76a2.56,2.56,0,0,1,.39-1,1.31,1.31,0,0,1,1-.61h0a1.17,1.17,0,0,1,1,.67,1.61,1.61,0,0,1,.08,1.24,2.11,2.11,0,0,1-.76,1,2.55,2.55,0,0,1-1.18.5,2.34,2.34,0,0,1-.53,0c-.11,1.11-.19,2.15-.26,3.1-.16,2.29-.28,4.15-.37,5.47v0c0,.63-.07,1.14-.1,1.5l0,.38C117,72.72,117,72.73,117,72.73Zm.61-10.66c-.1,1.06-.17,2.08-.24,3.1-.15,2.36-.24,4.28-.29,5.51l0,1.47c0-.36,0-.85.09-1.46v0c.09-1.31.21-3.18.37-5.47.07-.94.15-2,.26-3.09Zm-4.73.92-.06,2.18-.13,5.51c0,.42,0,.78,0,1.09v.37c0-.35,0-.84.07-1.46,0-1.32.12-3.2.21-5.51l0-1.06c0-.35,0-.71,0-1.09Zm.19,0,.27,0a2.59,2.59,0,0,0,2.28-.9,3.51,3.51,0,0,0,.49-.7.91.91,0,0,1-.16-.11,3.65,3.65,0,0,1-.47.69,2.49,2.49,0,0,1-1.83.87,1.43,1.43,0,0,1-.29,0l-.28-.05C113.07,62.86,113.06,62.92,113.06,63Zm-.19-.06.14,0c0-.06,0-.12,0-.18l-.14,0Zm-.72-3.23H112a1.17,1.17,0,0,0-.78.84,1.7,1.7,0,0,0,.14,1.17,2.46,2.46,0,0,0,1.45,1.2v-.19a2.26,2.26,0,0,1-1.3-1.09,1.43,1.43,0,0,1-.13-1,1,1,0,0,1,.64-.73.67.67,0,0,1,.74.49,2.62,2.62,0,0,1,.14,1l0,1.33.14.05c0-.45,0-.91,0-1.38a2.72,2.72,0,0,0-.14-1.06,1,1,0,0,0-.34-.46A.82.82,0,0,0,112.15,59.7Zm0,.21h-.1a.93.93,0,0,0-.61.69,1.45,1.45,0,0,0,.13,1,2.23,2.23,0,0,0,1.26,1.06l0-1.32a2.51,2.51,0,0,0-.14-1A.64.64,0,0,0,112.15,59.91ZM117.8,62a2.34,2.34,0,0,0,.53,0,2.52,2.52,0,0,0,1.15-.49,2,2,0,0,0,.74-1,1.51,1.51,0,0,0-.08-1.2,1.1,1.1,0,0,0-.94-.65h0a1.26,1.26,0,0,0-1,.58,2.7,2.7,0,0,0-.38,1c0,.26-.07.51-.1.76l0,.28c0,.14,0,.28,0,.42h.14c0-.13,0-.27,0-.41s0-.29.05-.43a3.65,3.65,0,0,1,.44-1.57,1.12,1.12,0,0,1,.86-.51h0a.93.93,0,0,1,.8.55,1.41,1.41,0,0,1,.06,1.07,1.84,1.84,0,0,1-.68.9,2.33,2.33,0,0,1-1.07.45,2.55,2.55,0,0,1-.48,0C117.81,61.92,117.81,62,117.8,62Zm-.19,0,.14,0c0-.06,0-.12,0-.19h-.15Zm-1.45-.6a3.49,3.49,0,0,0,.9.46,2.17,2.17,0,0,0,.5.13v-.18l-.45-.12a3.65,3.65,0,0,1-.87-.46Zm1.66.39a2.43,2.43,0,0,0,.47,0,2.29,2.29,0,0,0,1-.44,1.82,1.82,0,0,0,.66-.87,1.31,1.31,0,0,0-.06-1,.87.87,0,0,0-.75-.53h0a1.07,1.07,0,0,0-.82.49,3.48,3.48,0,0,0-.43,1.55c0,.14,0,.29,0,.43S117.84,61.67,117.82,61.81ZM116,61.27l.16.12.08-.17-.15-.12Zm-.63-3.41a1,1,0,0,0-.92,1.26,2.67,2.67,0,0,0,.6,1.2,6.1,6.1,0,0,0,.91.92l.09-.18a5.28,5.28,0,0,1-.84-.86,2.41,2.41,0,0,1-.57-1.11.93.93,0,0,1,.49-1,.91.91,0,0,1,1,.44,2.21,2.21,0,0,1,.25,1.2,3.9,3.9,0,0,1-.29,1.32l.16.12a4,4,0,0,0,.32-1.43,2.31,2.31,0,0,0-.28-1.31A1.16,1.16,0,0,0,115.33,57.86Zm0,.24a.78.78,0,0,0-.21,0,.86.86,0,0,0-.46.94,2.45,2.45,0,0,0,.55,1.09A6.09,6.09,0,0,0,116,61a4,4,0,0,0,.28-1.29,2.14,2.14,0,0,0-.25-1.18A.92.92,0,0,0,115.32,58.1Z" style="fill:#263238"></path><path d="M118.26,76.41a21.92,21.92,0,0,1-3.28.12,21.84,21.84,0,0,1-3.27-.12,23.56,23.56,0,0,1,3.27-.12A23.65,23.65,0,0,1,118.26,76.41Z" style="fill:#fff"></path></g><g id="freepik--Plant--inject-283"><path d="M435.54,443.71a7.13,7.13,0,0,1,3.7,4.07,12.14,12.14,0,0,1,.54,5.48c-.38,3.55-2.4,7.11-4.6,9.92-3.08-2.64-3.84-7.2-4.07-9.53-.37-3.69,1.25-10.53,4.43-9.94" style="fill:#EE5C14"></path><path d="M438.8,469.08a5.7,5.7,0,0,1,1.88-5.56,8,8,0,0,1,5.87-1.74,3.55,3.55,0,0,1,2.6,1.16,2.48,2.48,0,0,1,.06,2.55,5,5,0,0,1-1.91,1.84c-2.63,1.59-5.49,2.66-8.5,1.75" style="fill:#EE5C14"></path><path d="M435,479.93a3.82,3.82,0,0,1,.1-.73c.09-.51.21-1.17.35-2a19.87,19.87,0,0,1,2-6.28A12.34,12.34,0,0,1,442,466.2a8.89,8.89,0,0,1,1.87-.8c.23-.07.42-.1.55-.13l.19,0a13.85,13.85,0,0,0-2.52,1.11,12.75,12.75,0,0,0-4.44,4.72,21.27,21.27,0,0,0-2.06,6.19c-.18.83-.32,1.49-.44,2A3.7,3.7,0,0,1,435,479.93Z" style="fill:#263238"></path><path d="M434.78,449a1.64,1.64,0,0,1,0,.32c0,.24,0,.54.07.91.05.8.11,1.95.17,3.37.13,2.85.24,6.78.27,11.13s0,8.27-.13,11.12c-.05,1.42-.09,2.57-.14,3.36,0,.38,0,.68-.05.92a1,1,0,0,1,0,.31,1.57,1.57,0,0,1,0-.32v-.91c0-.83,0-2,.05-3.37,0-2.85.08-6.77.05-11.12s-.11-8.27-.19-11.11c0-1.4-.06-2.54-.09-3.37,0-.38,0-.68,0-.92A1.57,1.57,0,0,1,434.78,449Z" style="fill:#263238"></path><path d="M433.53,471.19a14.18,14.18,0,0,0-7.78-10.14c-1-.49-2.37-.82-3.2-.08s-.63,2.07-.21,3.11a12.32,12.32,0,0,0,11.12,7.4" style="fill:#EE5C14"></path><path d="M426.28,464.42a4.55,4.55,0,0,1,.65.29,4.93,4.93,0,0,1,.74.39,9.7,9.7,0,0,1,.94.58,11,11,0,0,1,1.08.8,13,13,0,0,1,1.15,1,15.77,15.77,0,0,1,2.19,2.73,15,15,0,0,1,1.45,3.16,13.3,13.3,0,0,1,.38,1.47,9.59,9.59,0,0,1,.19,1.29,8.71,8.71,0,0,1,.07,1.08,5.12,5.12,0,0,1,0,.81,3.47,3.47,0,0,1-.07.69c-.06,0,0-1-.16-2.56a11.48,11.48,0,0,0-.23-1.27,13,13,0,0,0-.39-1.44,15.61,15.61,0,0,0-1.45-3.1,17.08,17.08,0,0,0-2.14-2.7,14.52,14.52,0,0,0-1.11-1,13,13,0,0,0-1.05-.81C427.18,464.89,426.25,464.47,426.28,464.42Z" style="fill:#263238"></path></g></svg>